# xmcd
#
# Track frame offsets:
#	150
#	16759
#	30760
#	45986
#	59267
#	74830
#	88514
#	103533
#	119204
#	133516
#	148991
#	164224
#	179323
#	192775
#	206096
#	220132
#	234858
#
# Disc length: 3321 seconds
#
# Revision: 3
# Processed by: cddbd v1.5.2PL0 Copyright (c) Steve Scherf et al.
# Submitted via: EasyCDDAExtractor 15.3.0.1
#
DISCID=f50cf711
DTITLE=Nadine - Der Siebte Himmel 2015
DYEAR=2015
DGENRE=Sveitsi Iskelmä
TTITLE0=Der Siebte Himmel (War Die Hoelle)
TTITLE1=Wann Sagst Du Ja
TTITLE2=Du Schickst Mein Herz In Die Hoelle
TTITLE3=Nein Du Darfst Nicht Gehen
TTITLE4=Sommergefuehl
TTITLE5=Jede Nacht Kuesst Du Mich
TTITLE6=Ein Endloser Traum
TTITLE7=Einen Sommer Lang Im Cabrio
TTITLE8=Bis In Einem Anderen Leben
TTITLE9=Wenn Du Es Wissen Willst
TTITLE10=Ich Hab 'nen Bungalow In Santa Nirgendwo
TTITLE11=Du Hast Mein Herz Fuer Dich Allein (Ein Ganzes Leben)
TTITLE12=Du Ziehst Mich In Deinen Bann
TTITLE13=Was Auch Morgen Kommt
TTITLE14=Auf Wiedersehen, Arrivederci
TTITLE15=Manchmal Werden Traeume Wahr (Mit Calimeros)
TTITLE16=Endlich Bist Du Da (Mit Mike)
EXTD=
EXTT0=
EXTT1=
EXTT2=
EXTT3=
EXTT4=
EXTT5=
EXTT6=
EXTT7=
EXTT8=
EXTT9=
EXTT10=
EXTT11=
EXTT12=
EXTT13=
EXTT14=
EXTT15=
EXTT16=
PLAYORDER=
